<?xml version="1.0" encoding="UTF-8"?>
<svg id="Layer_2" data-name="Layer 2" xmlns="http://www.w3.org/2000/svg" viewBox="0 0 71.39 119">
  <defs>
    <style>
      .cls-1 {
        fill: #00db81;
      }
    </style>
  </defs>
  <g id="Layer_1-2" data-name="Layer 1">
    <g>
      <g>
        <path class="cls-1" d="m16.32,86.27c-.14.27-.29.46-.47.57-.18.11-.39.17-.64.17s-.52-.09-.83-.29c-.31-.19-.67-.4-1.09-.64s-.91-.45-1.47-.64c-.56-.19-1.22-.29-1.98-.29-.69,0-1.29.08-1.8.25-.51.17-.94.4-1.29.69s-.61.65-.78,1.06c-.17.41-.26.86-.26,1.36,0,.63.18,1.15.53,1.57.35.42.81.77,1.39,1.07.58.29,1.24.56,1.97.79.74.23,1.49.48,2.26.75.77.26,1.52.57,2.26.92.74.35,1.39.79,1.97,1.33s1.04,1.19,1.39,1.96.53,1.71.53,2.82c0,1.21-.21,2.33-.62,3.38-.41,1.05-1.01,1.97-1.81,2.75-.79.78-1.76,1.4-2.9,1.84-1.14.45-2.45.67-3.93.67-.85,0-1.68-.08-2.51-.25-.82-.17-1.61-.4-2.37-.71-.76-.31-1.46-.68-2.12-1.11-.66-.43-1.25-.91-1.76-1.44l1.44-2.38c.13-.17.3-.32.49-.43.19-.12.4-.18.64-.18.31,0,.64.13,1,.38s.78.53,1.26.84c.49.31,1.06.59,1.71.84.66.25,1.45.38,2.37.38,1.41,0,2.51-.33,3.28-1s1.16-1.63,1.16-2.89c0-.7-.18-1.27-.53-1.71-.35-.44-.81-.81-1.39-1.12-.58-.3-1.24-.56-1.97-.77-.74-.21-1.49-.44-2.25-.68-.76-.25-1.51-.54-2.25-.89-.74-.34-1.4-.79-1.97-1.35-.58-.55-1.04-1.25-1.39-2.07-.35-.83-.53-1.85-.53-3.07,0-.97.19-1.92.58-2.84.39-.92.95-1.74,1.7-2.45.74-.71,1.66-1.28,2.74-1.71,1.08-.43,2.32-.65,3.71-.65,1.57,0,3.02.25,4.35.74,1.33.49,2.46,1.18,3.39,2.07l-1.22,2.34Z"/>
        <path class="cls-1" d="m38.63,81.42v3.95h-11.82v7.89h9.98v3.96h-9.98v10.86h-5v-26.66h16.82Z"/>
        <path class="cls-1" d="m54.77,104.43c1.12,0,2.09-.1,2.92-.3.83-.2,1.62-.48,2.37-.84v-4.85h-3.34c-.32,0-.57-.09-.76-.27-.18-.18-.28-.4-.28-.65v-2.8h8.87v10.79c-.68.49-1.38.92-2.11,1.28-.73.36-1.51.66-2.34.89-.83.23-1.72.41-2.66.53-.95.12-1.97.18-3.06.18-1.94,0-3.73-.34-5.37-1.01-1.63-.68-3.05-1.62-4.24-2.82-1.19-1.2-2.12-2.64-2.79-4.31s-1-3.5-1-5.48.32-3.84.98-5.51,1.58-3.11,2.78-4.32c1.2-1.2,2.65-2.14,4.36-2.8s3.62-1,5.75-1,4.06.32,5.65.97,2.94,1.48,4.05,2.52l-1.44,2.25c-.28.46-.66.68-1.12.68-.29,0-.6-.1-.9-.3-.39-.23-.8-.47-1.21-.7s-.87-.44-1.36-.61c-.5-.17-1.06-.31-1.68-.42-.62-.11-1.34-.17-2.15-.17-1.31,0-2.5.22-3.57.66-1.06.44-1.97,1.08-2.72,1.9-.75.82-1.33,1.81-1.73,2.97-.41,1.16-.61,2.45-.61,3.87,0,1.54.21,2.9.64,4.1.43,1.2,1.03,2.21,1.81,3.03.77.82,1.7,1.45,2.77,1.89,1.07.44,2.24.65,3.5.65Z"/>
      </g>
      <g>
        <path class="cls-1" d="m3.69,112.92c-.03.06-.06.1-.1.12-.04.02-.08.04-.14.04s-.11-.02-.18-.06c-.07-.04-.15-.09-.24-.14-.09-.05-.2-.1-.32-.14-.12-.04-.27-.06-.43-.06-.15,0-.28.02-.39.05-.11.04-.2.09-.28.15-.08.06-.13.14-.17.23-.04.09-.06.19-.06.29,0,.14.04.25.11.34s.18.17.3.23c.13.06.27.12.43.17s.32.1.49.16c.17.06.33.12.49.2.16.08.3.17.43.29.13.12.23.26.3.43s.11.37.11.61c0,.26-.04.51-.13.73-.09.23-.22.43-.39.6-.17.17-.38.3-.63.4-.25.1-.53.15-.85.15-.18,0-.37-.02-.54-.05s-.35-.09-.51-.15c-.16-.07-.32-.15-.46-.24-.14-.09-.27-.2-.38-.31l.31-.52s.06-.07.11-.09c.04-.03.09-.04.14-.04.07,0,.14.03.22.08.08.05.17.12.27.18.11.07.23.13.37.18.14.05.31.08.51.08.31,0,.54-.07.71-.22.17-.15.25-.35.25-.63,0-.15-.04-.28-.11-.37-.08-.1-.18-.18-.3-.24-.13-.07-.27-.12-.43-.17-.16-.05-.32-.09-.49-.15s-.33-.12-.49-.19c-.16-.07-.3-.17-.43-.29-.12-.12-.23-.27-.3-.45-.08-.18-.11-.4-.11-.67,0-.21.04-.42.13-.62s.21-.38.37-.53c.16-.16.36-.28.59-.37.23-.09.5-.14.8-.14.34,0,.66.05.94.16s.53.26.74.45l-.26.51Z"/>
        <path class="cls-1" d="m4.82,119v-5.45h.6c.06,0,.12.01.16.04.04.03.07.07.09.14l.08.38c.17-.19.36-.34.57-.46.21-.12.47-.18.75-.18.22,0,.43.05.61.14.19.09.34.23.48.41.13.18.24.4.31.66.07.26.11.56.11.89,0,.31-.04.59-.12.85-.08.26-.2.49-.35.68s-.34.34-.56.45c-.22.11-.46.16-.73.16-.23,0-.43-.04-.59-.11-.16-.07-.31-.17-.43-.29v1.68h-.99Zm1.92-4.74c-.21,0-.38.04-.53.13-.15.09-.28.21-.41.37v1.84c.11.14.23.24.37.29.13.05.27.08.43.08s.28-.03.41-.08c.12-.06.22-.14.31-.26.08-.11.15-.26.19-.43.05-.17.07-.38.07-.62s-.02-.44-.06-.61c-.04-.17-.09-.3-.17-.41-.07-.1-.16-.18-.26-.23s-.22-.07-.35-.07Z"/>
        <path class="cls-1" d="m11.05,113.48c.26,0,.5.04.71.12.22.08.41.2.56.36.16.16.28.35.37.58.09.23.13.49.13.79,0,.08,0,.14,0,.19,0,.05-.02.09-.04.12-.02.03-.04.05-.07.06-.03.01-.07.02-.11.02h-2.54c.03.42.14.73.34.93s.46.3.78.3c.16,0,.3-.02.41-.06s.22-.08.3-.12c.09-.04.16-.09.23-.12s.13-.06.19-.06c.04,0,.07,0,.1.02.03.02.05.04.08.07l.29.36c-.11.13-.23.24-.37.32-.14.09-.28.16-.43.21-.15.05-.3.09-.45.11-.15.02-.3.03-.45.03-.29,0-.55-.05-.8-.14-.25-.09-.46-.24-.64-.42-.18-.18-.32-.41-.43-.69-.1-.27-.16-.59-.16-.95,0-.28.05-.54.14-.79.09-.25.22-.46.39-.64.17-.18.38-.33.62-.43s.52-.16.83-.16Zm.02.71c-.29,0-.51.08-.68.24-.16.16-.27.39-.31.69h1.86c0-.13-.02-.25-.05-.36-.03-.11-.09-.21-.16-.3-.07-.08-.16-.15-.27-.2-.11-.05-.24-.07-.38-.07Z"/>
        <path class="cls-1" d="m16.51,114.42s-.06.07-.09.09c-.03.02-.07.03-.12.03s-.1-.02-.15-.05-.11-.07-.17-.1c-.07-.04-.15-.07-.24-.1-.09-.03-.21-.05-.34-.05-.17,0-.33.03-.46.09-.13.06-.24.15-.33.27-.09.12-.15.26-.19.43-.04.17-.06.36-.06.57s.02.41.07.58c.05.17.11.31.2.43s.19.2.32.26c.12.06.27.09.42.09s.29-.02.38-.06c.1-.04.18-.08.25-.13.07-.05.12-.09.17-.13.05-.04.1-.06.17-.06.08,0,.14.03.18.09l.28.36c-.11.13-.23.24-.36.32-.13.09-.26.16-.4.21-.14.05-.28.09-.43.11-.15.02-.29.03-.44.03-.25,0-.49-.05-.72-.14-.22-.09-.42-.23-.59-.41-.17-.18-.3-.4-.4-.67-.1-.26-.15-.56-.15-.9,0-.3.04-.58.13-.84.09-.26.21-.48.38-.67s.38-.34.62-.44.53-.16.86-.16.58.05.81.15.44.24.62.42l-.26.36Z"/>
        <path class="cls-1" d="m18.65,112.35c0,.09-.02.17-.05.24-.03.08-.08.14-.14.2-.06.06-.12.1-.2.13-.08.03-.16.05-.25.05s-.17-.02-.24-.05c-.08-.03-.14-.08-.2-.13-.06-.06-.1-.12-.13-.2-.03-.07-.05-.15-.05-.24s.02-.17.05-.25c.03-.08.08-.14.13-.2.06-.06.12-.1.2-.13s.16-.05.24-.05.17.02.25.05.14.08.2.13c.06.06.1.12.14.2.04.08.05.16.05.25Zm-.15,1.2v4.11h-.99v-4.11h.99Z"/>
        <path class="cls-1" d="m21.31,113.48c.26,0,.5.04.71.12.22.08.41.2.56.36.16.16.28.35.37.58.09.23.13.49.13.79,0,.08,0,.14,0,.19,0,.05-.02.09-.04.12-.02.03-.04.05-.07.06-.03.01-.07.02-.11.02h-2.54c.03.42.14.73.34.93s.46.3.78.3c.16,0,.3-.02.41-.06s.22-.08.3-.12c.09-.04.16-.09.23-.12s.13-.06.19-.06c.04,0,.07,0,.1.02.03.02.05.04.08.07l.29.36c-.11.13-.23.24-.37.32-.14.09-.28.16-.43.21-.15.05-.3.09-.45.11-.15.02-.3.03-.45.03-.29,0-.55-.05-.8-.14-.25-.09-.46-.24-.64-.42-.18-.18-.32-.41-.43-.69-.1-.27-.16-.59-.16-.95,0-.28.05-.54.14-.79.09-.25.22-.46.39-.64.17-.18.38-.33.62-.43s.52-.16.83-.16Zm.02.71c-.29,0-.51.08-.68.24-.16.16-.27.39-.31.69h1.86c0-.13-.02-.25-.05-.36-.03-.11-.09-.21-.16-.3-.07-.08-.16-.15-.27-.2-.11-.05-.24-.07-.38-.07Z"/>
        <path class="cls-1" d="m26.33,114.35s-.05.07-.08.09-.07.03-.11.03-.1-.01-.15-.04c-.05-.03-.12-.06-.19-.09-.07-.03-.15-.06-.25-.09-.09-.03-.2-.04-.33-.04-.2,0-.35.04-.46.12s-.17.19-.17.32c0,.09.03.16.09.22.06.06.13.11.23.16.09.05.2.09.32.12s.24.08.37.12c.12.04.25.09.37.15s.23.12.32.21.17.18.23.3c.06.12.09.26.09.42,0,.2-.04.38-.11.55s-.18.31-.32.43-.31.22-.51.28c-.2.07-.44.1-.7.1-.14,0-.28-.01-.41-.04s-.26-.06-.39-.11c-.12-.05-.24-.1-.34-.16s-.2-.13-.28-.2l.23-.38s.06-.08.1-.1c.04-.02.09-.04.15-.04s.12.02.17.05c.05.03.12.07.19.11s.16.08.25.11c.1.04.22.05.37.05.12,0,.22-.01.3-.04.08-.03.15-.06.21-.11.05-.05.09-.1.12-.16.03-.06.04-.12.04-.19,0-.1-.03-.17-.09-.24-.06-.06-.13-.11-.23-.16-.09-.04-.2-.09-.32-.12s-.25-.08-.37-.12c-.13-.04-.25-.09-.37-.15-.12-.06-.23-.13-.32-.22-.09-.09-.17-.2-.23-.32-.06-.13-.09-.28-.09-.46,0-.17.03-.33.1-.48.07-.15.16-.28.29-.4.13-.11.29-.2.48-.27.19-.07.42-.1.67-.1.28,0,.54.05.77.14.23.09.43.22.58.37l-.22.36Z"/>
        <path class="cls-1" d="m32.64,111.87v.86h-2.57v1.71h2.17v.86h-2.17v2.36h-1.08v-5.79h3.65Z"/>
        <path class="cls-1" d="m34.63,112.35c0,.09-.02.17-.05.24-.03.08-.08.14-.14.2-.06.06-.12.1-.2.13-.08.03-.16.05-.25.05s-.17-.02-.24-.05c-.08-.03-.14-.08-.2-.13-.06-.06-.1-.12-.13-.2-.03-.07-.05-.15-.05-.24s.02-.17.05-.25c.03-.08.08-.14.13-.2.06-.06.12-.1.2-.13s.16-.05.24-.05.17.02.25.05.14.08.2.13c.06.06.1.12.14.2.04.08.05.16.05.25Zm-.15,1.2v4.11h-.99v-4.11h.99Z"/>
        <path class="cls-1" d="m36.65,111.71v5.95h-.99v-5.95h.99Z"/>
        <path class="cls-1" d="m39.47,113.48c.26,0,.5.04.71.12.22.08.4.2.56.36.16.16.28.35.37.58.09.23.13.49.13.79,0,.08,0,.14,0,.19,0,.05-.02.09-.04.12-.02.03-.04.05-.07.06-.03.01-.07.02-.11.02h-2.54c.03.42.14.73.34.93s.46.3.79.3c.16,0,.3-.02.41-.06.12-.04.22-.08.3-.12.09-.04.16-.09.23-.12.07-.04.13-.06.19-.06.04,0,.07,0,.1.02.03.02.05.04.08.07l.29.36c-.11.13-.23.24-.37.32-.14.09-.28.16-.43.21-.15.05-.3.09-.45.11-.15.02-.3.03-.45.03-.29,0-.55-.05-.8-.14s-.46-.24-.64-.42c-.18-.18-.32-.41-.43-.69-.1-.27-.16-.59-.16-.95,0-.28.05-.54.14-.79.09-.25.22-.46.39-.64.17-.18.38-.33.62-.43s.52-.16.83-.16Zm.02.71c-.29,0-.51.08-.68.24-.16.16-.27.39-.31.69h1.86c0-.13-.02-.25-.05-.36-.03-.11-.09-.21-.16-.3-.07-.08-.16-.15-.27-.2-.11-.05-.24-.07-.38-.07Z"/>
        <path class="cls-1" d="m46.31,116.86c.24,0,.46-.02.63-.07s.35-.11.51-.18v-1.05h-.72c-.07,0-.12-.02-.16-.06-.04-.04-.06-.09-.06-.14v-.61h1.92v2.34c-.15.11-.3.2-.46.28-.16.08-.33.14-.51.19-.18.05-.37.09-.58.11s-.43.04-.66.04c-.42,0-.81-.07-1.16-.22-.36-.15-.66-.35-.92-.61-.26-.26-.46-.57-.61-.94-.14-.36-.22-.76-.22-1.19s.07-.83.21-1.2c.14-.36.34-.67.6-.94.26-.26.58-.46.95-.61.37-.14.79-.22,1.25-.22s.88.07,1.23.21c.35.14.64.32.88.55l-.31.49c-.06.1-.14.15-.24.15-.06,0-.13-.02-.2-.06-.09-.05-.17-.1-.26-.15-.09-.05-.19-.09-.3-.13-.11-.04-.23-.07-.36-.09-.13-.02-.29-.04-.47-.04-.29,0-.54.05-.78.14s-.43.23-.59.41-.29.39-.38.64c-.09.25-.13.53-.13.84,0,.33.05.63.14.89.09.26.22.48.39.66s.37.32.6.41.48.14.76.14Z"/>
        <path class="cls-1" d="m49.38,117.66v-4.11h.58c.1,0,.17.02.21.06.04.04.07.1.08.19l.06.5c.15-.25.32-.45.52-.6.2-.15.42-.22.66-.22.2,0,.37.05.5.14l-.13.74s-.03.08-.05.1c-.03.02-.06.03-.11.03-.04,0-.09,0-.16-.03-.07-.02-.16-.03-.28-.03-.21,0-.38.06-.53.17-.15.11-.27.28-.37.5v2.56h-.99Z"/>
        <path class="cls-1" d="m54.4,113.48c.31,0,.59.05.84.15.25.1.46.24.64.42.18.18.31.4.41.67.1.26.14.55.14.88s-.05.62-.14.88c-.1.26-.23.48-.41.67-.18.18-.39.33-.64.42-.25.1-.53.15-.84.15s-.59-.05-.84-.15-.46-.24-.64-.42c-.18-.18-.31-.41-.41-.67s-.15-.56-.15-.88.05-.62.15-.88c.1-.26.23-.48.41-.67s.39-.32.64-.42.53-.15.84-.15Zm0,3.47c.34,0,.6-.12.76-.34s.25-.57.25-1.01-.08-.78-.25-1.01c-.16-.23-.42-.35-.76-.35s-.6.12-.77.35c-.17.23-.25.57-.25,1.01s.08.78.25,1.01.42.35.77.35Z"/>
        <path class="cls-1" d="m58.1,113.55v2.61c0,.25.06.45.17.58.12.14.29.21.52.21.17,0,.33-.04.48-.11.15-.08.29-.18.43-.31v-2.97h.99v4.11h-.61c-.13,0-.21-.06-.25-.18l-.07-.33c-.08.09-.17.16-.26.23-.09.07-.19.13-.29.18-.1.05-.21.09-.33.12-.12.03-.25.04-.38.04-.22,0-.42-.04-.6-.11-.17-.08-.32-.18-.43-.32s-.21-.3-.27-.5c-.06-.19-.09-.4-.09-.63v-2.61h.99Z"/>
        <path class="cls-1" d="m61.75,119v-5.45h.6c.06,0,.12.01.16.04s.07.07.09.14l.08.38c.17-.19.36-.34.57-.46.21-.12.47-.18.76-.18.22,0,.43.05.61.14.19.09.35.23.48.41.13.18.24.4.31.66.07.26.11.56.11.89,0,.31-.04.59-.12.85-.08.26-.2.49-.36.68-.15.19-.34.34-.56.45-.22.11-.46.16-.73.16-.23,0-.43-.04-.59-.11-.16-.07-.31-.17-.43-.29v1.68h-.99Zm1.92-4.74c-.21,0-.38.04-.53.13-.15.09-.28.21-.41.37v1.84c.11.14.23.24.37.29.13.05.28.08.43.08s.28-.03.41-.08c.12-.06.22-.14.31-.26.08-.11.15-.26.2-.43s.07-.38.07-.62-.02-.44-.06-.61c-.04-.17-.09-.3-.17-.41-.07-.1-.16-.18-.26-.23-.1-.05-.22-.07-.35-.07Z"/>
      </g>
      <g>
        <g>
          <g>
            <path class="cls-1" d="m51.09,37.85c-1.6-5.72-4.92-10.72-9.38-14.41-.11-.09-.22-.18-.34-.28-2.72-2.18-5.83-3.88-9.23-4.96-.71-.21-1.19-.32-1.77-.5-1.22-.39-2.4-.86-3.54-1.42-.09-.04-.17-.08-.26-.12-.23-.11-.46-.23-.68-.35-.13-.07-.27-.14-.4-.22-.08-.04-.16-.09-.24-.14-.16-.09-.32-.18-.48-.28-.41-.24-.82-.5-1.22-.76-.01,0-.02-.02-.04-.02-.14-.09-.27-.18-.4-.28-.02-.01-.04-.03-.06-.04s-.04-.02-.06-.04c-.02-.01-.03-.02-.04-.03-.17-.11-.34-.23-.5-.35-.15-.1-.29-.21-.44-.32-.11-.08-.22-.17-.33-.25-.2-.15-.39-.31-.58-.47-.12-.1-.24-.2-.36-.3-.04-.03-.07-.06-.11-.09-.11-.09-.21-.18-.32-.28-.17-.14-.33-.3-.49-.44-.37-.35-.74-.71-1.09-1.08-.1-.1-.19-.2-.28-.3-.2-.21-.39-.43-.58-.64-.11-.13-.22-.26-.34-.39-.07-.09-.15-.18-.22-.27-.12-.15-.24-.3-.36-.45-.12-.15-.23-.3-.35-.45-.28-.38-.56-.76-.83-1.14-.03-.04-.06-.09-.09-.13-.2-.3-.4-.6-.59-.92-.02-.03-.04-.06-.06-.09-.12-.2-.24-.39-.36-.59-.1-.18-.21-.36-.31-.54-.24-.43-.46-.86-.68-1.31-.08-.17-.17-.35-.25-.52-.11-.22-.21-.45-.31-.68-.1-.22-.19-.46-.29-.69-.09-.22-.17-.43-.25-.65-.08-.22-.16-.44-.24-.66,0,0,0,.01,0,.02.64,13.17,4.77,25.42,11.47,35.87,1.54-4.39,2.68-8.97,3.36-13.69.5,3.46.76,7,.76,10.59,0,2.8-.17,5.57-.47,8.29,2.82,3.66,5.98,7.04,9.43,10.11,2.43-6.08,4.07-12.56,4.79-19.32.09.87.16,1.74.23,2.61l.12,2.1c.04,1.04.07,2.09.07,3.14,0,4.99-.5,9.86-1.46,14.57,2.5,1.94,5.12,3.74,7.87,5.35,1.33-2.38,2.34-4.97,2.94-7.7.04-.2.09-.39.12-.59.03-.15.06-.3.09-.46.02-.11.04-.22.06-.33.02-.11.04-.22.06-.34.02-.14.05-.29.06-.44.05-.33.1-.66.13-1,.03-.27.05-.54.08-.8.02-.24.04-.49.05-.74.02-.26.02-.52.03-.78,0-.26.01-.52.01-.78v-.04c0-2.7-.37-5.3-1.06-7.77Z"/>
            <path class="cls-1" d="m21.89,58.84l-7.07-1.98c-.61.98-1.7,1.64-2.94,1.64-1.91,0-3.46-1.55-3.46-3.46s1.55-3.46,3.46-3.46c1.74,0,3.18,1.29,3.42,2.96l15.68,4.4c-3.23-2.61-7.04-5.81-9.95-8.66-.97.14-1.86.21-2.67.21-4.31,0-6.68-1.8-8.98-3.54-.19-.14-.38-.29-.58-.43-.56.39-1.24.62-1.97.62-1.91,0-3.46-1.55-3.46-3.46s1.55-3.46,3.46-3.46,3.46,1.55,3.46,3.46c0,.31-.05.62-.12.9.21.16.43.32.64.48,2.33,1.77,4.25,3.21,8.09,3.05-4.26-4.5-5.93-7.19-8.18-10.81-.44-.71-.9-1.46-1.42-2.26l-.14-.21c-.18.03-.37.05-.57.05-1.91,0-3.46-1.55-3.46-3.46s1.55-3.46,3.46-3.46,3.46,1.55,3.46,3.46c0,.86-.31,1.64-.83,2.25l.07.11c.52.81.98,1.57,1.43,2.28,2.44,3.94,4.06,6.54,9.01,11.6,3.01,3.08,7.5,6.84,11.15,9.78-.18-.17-.3-.29-.28-.29-.09-.08-.17-.16-.26-.24-.22-.21-.43-.42-.64-.63-.18-.17-.36-.35-.53-.52-.18-.18-.35-.35-.52-.53-.07-.07-.14-.14-.21-.21-.21-.21-.41-.43-.62-.64-.26-.28-.53-.57-.79-.85-.26-.28-.52-.57-.77-.86-.09-.1-.18-.2-.26-.3,0,0-.01-.01-.02-.02-.18-.21-.36-.41-.53-.62-.22-.25-.43-.51-.64-.76l-.49-.6c-.19-.24-.38-.48-.57-.72-.19-.23-.37-.47-.55-.7-.18-.23-.54-.71-.54-.71l-1.84-2.57s-.61-.9-.9-1.35c-.35-.54-.7-1.09-1.04-1.64-.13-.22-.26-.43-.4-.65-.28-.46-.55-.93-.82-1.4-.14-.25-.29-.51-.43-.76-.31-.56-.61-1.12-.91-1.7-.14-.26-.27-.53-.41-.79-.13-.26-.26-.53-.4-.8-.13-.27-.26-.53-.39-.81-.09-.2-.18-.4-.28-.59-.12-.26-.24-.53-.36-.8-.14-.31-.28-.62-.41-.94-.13-.31-.26-.61-.39-.92-.12-.28-.23-.55-.34-.83-.09-.23-.18-.45-.27-.68-.23-.61-.46-1.22-.68-1.83-.12-.35-.24-.69-.36-1.03h0c-.1-.3-.2-.6-.29-.89-.13-.4-.26-.8-.38-1.19-.04-.12-.07-.23-.11-.36-.08-.27-.16-.54-.23-.81-.09-.29-.17-.58-.24-.87-.04-.16-.09-.32-.13-.48-.01-.04-.02-.09-.03-.13-.04-.13-.07-.26-.11-.4-.06-.25-.12-.49-.18-.74-.01-.04-.02-.09-.03-.13-.06-.25-.12-.5-.18-.75-.07-.32-.14-.63-.21-.94-.07-.32-.14-.63-.2-.95-.14-.7-.28-1.4-.4-2.1-.02-.11-.04-.22-.06-.33-.04-.21-.07-.43-.11-.65-.04-.25-.08-.51-.11-.76-.04-.26-.08-.52-.11-.78-.05-.39-.11-.78-.15-1.17h0c-.01-.15-.03-.3-.05-.45-.03-.27-.06-.54-.09-.82-.03-.29-.06-.58-.08-.87-.02-.2-.03-.39-.05-.59-.01-.14-.02-.28-.03-.41-.01-.18-.1-2.12-.11-2.31,0,4.88-1.94,10.03-4.03,14.1C2.74,29.3.4,36.67.59,43.21c.14,4.77,2.93,14.94,12.47,21.3,1.44-1.75,4.87-4.85,8.84-5.68Z"/>
            <path class="cls-1" d="m61.5,74.46h0c-1.53,0-2.92-.84-3.71-2.15-1.01-1.68-2.36-3.12-3.95-4.25h0s-6.33-4.41-7.14-4.89c-.09-.05-.17-.11-.26-.16-2.92-1.78-5.7-3.75-8.33-5.9-.01-.01-.03-.03-.04-.04l-1.83-1.56c-2.57-2.25-4.98-4.69-7.2-7.3-.8-.93-1.57-1.88-2.32-2.85-.44-.57-.87-1.15-1.3-1.73l-1.79-2.59c-2.57-3.9-4.78-8.08-6.57-12.47-.89-2.18-1.68-4.42-2.35-6.71-.21-.72-.41-1.44-.61-2.18-.38-1.47-.72-2.95-1.01-4.45-.24-1.22-.45-2.46-.62-3.71-.18-1.23-.32-2.46-.43-3.7-.05-.54-.09-1.08-.12-1.62-.1-1.55-1.47-3.68-1.53-3.88,0,0,0,0,0,0,0,0,0,0,0,0-.04-.09-.06-.19-.09-.28,0,.11-.01.34-.01.34-.03.86-.05,1.73-.05,2.6,0,.35,0,.7,0,1.05,0,.35.01.7.02,1.05,0,.23.01.46.02.69,0,.19.01.38.02.58,0,.15.01.29.02.44.01.33.04.65.06.98,0,.07,0,.14.01.21.01.19.02.38.04.56.01.14.02.28.03.41.02.2.04.4.05.59.03.29.06.58.08.87.03.27.06.54.09.82.02.15.04.3.05.44h0c.05.39.1.78.15,1.17.04.26.07.52.11.78.03.25.08.5.11.75.04.22.1.59.13.81.01.06.02.12.03.18.12.7.25,1.4.4,2.1.06.31.13.63.2.95.07.31.14.63.21.94.06.25.12.5.18.75.01.04.02.09.03.13.06.25.12.5.18.74.04.13.07.26.11.4,0,.04.02.09.03.13.04.16.09.32.13.48.08.29.16.58.24.87.08.27.16.54.23.81.04.12.07.23.11.36.12.4.25.8.38,1.19.1.3.2.59.29.89h0c.11.35.23.69.36,1.04.22.61.45,1.22.68,1.83.09.23.18.45.27.68.11.28.22.55.34.83.13.31.26.61.39.92.13.32.27.63.41.94.12.27.24.53.36.8.09.2.18.4.28.59.13.27.26.54.39.81.13.27.26.53.4.8.13.26.27.53.41.79.3.57.6,1.14.91,1.7.14.25.28.51.43.76.27.47.54.94.82,1.4.13.22.26.44.4.65.34.55.69,1.1,1.04,1.64.3.45.9,1.35.9,1.35l1.84,2.57s.36.48.54.71.36.47.55.7c.19.24.38.48.57.72l.49.6c.21.25.42.51.64.76.18.21.36.41.53.62,0,0,.01.01.02.02.09.1.18.2.26.3.26.29.52.58.78.86.26.28.53.57.79.85.2.21.41.43.62.64.07.07.14.14.21.21.18.18.35.36.52.53.17.18.35.35.53.52.21.21.42.42.64.63.09.08.17.17.26.24-.07,0,1.67,1.54,1.71,1.57.32.28.64.56.96.84.32.28.64.55.97.82.14.11.27.22.41.33.14.12.29.23.44.35.28.23.55.45.83.67.16.12.31.24.46.36.31.23.62.47.93.7.16.12.32.24.48.36.29.21.58.42.87.63.21.15.42.29.63.44.04.03.08.05.11.08.22.15.44.3.66.45.07.05.15.1.22.15.04.03.09.06.13.09l-12.71-3.81c-5.3-1.59-11.04.16-14.55,4.44l-3.27,3.98c-1.85,2.25-2.86,4.47-5.74,4.91h-1.88c-1.02,0-1.84.83-1.83,1.84,0,.8.66,1.45,1.46,1.45h2.66c4.13-.61,5.92-3.93,8.74-7.01l3.27-3.56c2.66-2.91,6.61-3.9,10.42-2.89l9.77,3.01c-2.38,1.36-4.33,3.39-5.58,5.84-.41.8-1.24,1.3-2.14,1.3h-1.18c-.85,0-1.54.69-1.54,1.54,0,.98.79,1.77,1.77,1.77h2.49c1.37,0,2.64-.81,3.15-2.08,1.59-4,5.44-6.94,9.97-6.94,4.1,0,7.73,2.6,9.59,6.11.94,1.77,2.75,2.91,4.76,2.91h1.19c.98,0,1.77-.79,1.77-1.77,0-.85-.69-1.54-1.54-1.54Z"/>
          </g>
          <path class="cls-1" d="m38.83,10.22c15.18,6.7,25.54,22.37,25.22,38.98.01.89-.02,1.78-.08,2.67-.24-.21-1.6-1.49-2.01-1.86-4.42-4-5.82-5.3-5.93-3.28-.29,5.46-1.74,10.79-4.36,15.11,3.37,2.3,5.5,3.73,7.81,6.2,1.78,1.91,4.82,1.93,6.58.01.02-.02.04-.04.05-.06.71-.82,1.1-1.45,1.39-2.34.34-1.06.58-2.11.74-3.1.29-1.78.32-3.35.25-4.42,2.82-7.38,3.55-15.39,2.27-23.13-.06-.59-.3-1.52-.42-2.1-.14-.6-.3-1.5-.49-2.08-.23-.72-.66-2.37-.94-3.06-.36-.92-.74-2.09-1.16-2.98-.16-.35-.97-2.1-1.12-2.42-.37-.67-.92-1.65-1.29-2.33-1.97-3.31-4.38-6.48-7.15-9.14-2.45-2.47-5.33-4.58-8.3-6.41-.89-.5-1.86-1-2.76-1.5-.65-.3-2.17-.98-2.85-1.29.67.35,2.11,1.09,2.78,1.44.86.54,1.8,1.09,2.66,1.64.63.47,1.91,1.34,2.53,1.82,4.06,3.19,7.58,7.09,10.27,11.49.19.33,1.11,1.92,1.28,2.22.32.66.8,1.64,1.12,2.31.12.23.32.7.41.94.25.65.92,2.22,1.1,2.86.22.71.56,1.73.77,2.43.08.35.5,2.08.59,2.48,1.37,6.49,1.18,13.37-.57,19.78-.14-18.01-11.46-34.54-28.43-40.86Zm24.04,51.94c-2.01.53-3.91-1.05-3.77-3.11.09-1.25.99-2.34,2.2-2.66,2.01-.53,3.91,1.05,3.77,3.12-.09,1.25-.99,2.34-2.2,2.66Z"/>
        </g>
        <path class="cls-1" d="m6.67,31.4c0,1.06.86,1.93,1.93,1.93s1.93-.86,1.93-1.93-.86-1.93-1.93-1.93-1.93.86-1.93,1.93Z"/>
        <path class="cls-1" d="m4.89,43.66c0,1.06.86,1.93,1.93,1.93s1.93-.86,1.93-1.93-.86-1.93-1.93-1.93-1.93.86-1.93,1.93Z"/>
        <path class="cls-1" d="m9.95,55.03c0,1.06.86,1.93,1.93,1.93s1.93-.86,1.93-1.93-.86-1.93-1.93-1.93-1.93.86-1.93,1.93Z"/>
      </g>
    </g>
  </g>
</svg>