<?xml version="1.0" encoding="utf-8"?>
<!-- Generator: Adobe Illustrator 27.1.1, SVG Export Plug-In . SVG Version: 6.00 Build 0)  -->
<svg version="1.1" id="Layer_1" xmlns="http://www.w3.org/2000/svg" xmlns:xlink="http://www.w3.org/1999/xlink" x="0px" y="0px"
	 viewBox="0 0 528 543" style="enable-background:new 0 0 528 543;" xml:space="preserve">
<style type="text/css">
	.st0{opacity:0.75;}
	.st1{fill-rule:evenodd;clip-rule:evenodd;fill:#413A32;}
	.st2{fill:#756B5E;}
	.st3{fill:#00CC92;}
	.st4{fill-rule:evenodd;clip-rule:evenodd;fill:#756B5E;}
	.st5{fill-rule:evenodd;clip-rule:evenodd;fill:#00CC92;}
</style>
<g class="st0">
	<g>
		<path class="st1" d="M188.8,217.2c16.7-0.2,28.1,19.2,28.1,19.2s14.5,22.6,31.5,22.4c12.8-0.2,13.1-9.5,12.6-13.6l-0.1-0.6
			l-0.2-1.1l0-0.2c-0.9-5.4-6.4-7-6.4-7c-5.4-1.4-10.5-4.1-15.4-8c-13.5-10.8-11.7-25-1.9-34.8c-7.4-5.8-16.8-12.6-24.2-15.6
			c-16.3-6.6-25,4.2-25.7,5l-0.1,0.2c-0.7,1.2-1.3,2.4-1.9,3.7L185,187c-0.6,1.3-1.3,2.6-1.9,4l-0.1,0.2c-0.5,1.2-1,2.4-1.5,3.6
			c-1.1,2.9-2.1,5.8-3,8.9l-0.2,0.8c-0.4,1.3-0.7,2.6-1,3.9l0,0.2c-0.7,2.8-1.2,5.6-1.7,8.5l-0.1,0.9c-0.2,1.4-0.4,2.9-0.5,4.3
			l-0.1,0.6l-0.1,1.1C177.4,220.4,181.7,217.3,188.8,217.2"/>
		<path class="st1" d="M270.7,280.9c-1.2-3.1-2.3-6.2-3.2-9.3c-3.4,1.5-7.3,2.3-11.4,2.3c-31.5,0.4-39.8-27.2-55-42.3
			c-15.9-15.8-27.4,1.7-26.5,11c0.1,0.4,0.1,0.8,0.1,1.1c0.1,0.9,0.1,1.9,0.3,2.8l0.1,1.2c0.1,1.2,0.3,2.3,0.4,3.5
			c0.3,1.9,0.6,3.8,0.9,5.8l0.1,0.5c0.3,1.4,0.5,2.8,0.9,4.2c0.1,0.4,0.2,0.9,0.3,1.3c0.3,1.4,0.6,2.7,1,4.1l0.1,0.5l0.1,0.4
			c0.2,0.6,0.3,1.2,0.5,1.8c0.2,0.6,0.3,1.1,0.5,1.7c0.2,0.9,0.5,1.7,0.8,2.5l0.3,1c15.1,46.6,53.8,86.9,101.3,110.9
			c-16.3-11.3-28.1-25.8-32.4-41.7c-5.3-19.8,1.8-38.4,17.8-51.1C271.3,290.2,272.4,285.6,270.7,280.9"/>
		<path class="st1" d="M420,372.1c-6.6,2.8-16.5,6-28.5,6.9c-1.8,0.1-3.6,0.2-5.5,0.2c-20.4,0.3-48.8-6.5-77.4-36.3l-3.7-3.9
			c-2,4.2-2.5,8.8-1.1,13.8c5.5,20.4,38.1,38.6,71.1,38.2c8.6-0.1,18.6-1.1,25.5-3.3c-6.5,4.3-20.7,8.5-34,8.6
			c-37.9,0.5-75.7-21.5-82.9-48c-2.4-8.9-1.5-18.2,2.5-26c1.6-3.1,1.2-7-1.1-10.6c-15,9.2-22,23.1-17.5,39.5
			c6.8,25.3,38,46.6,76.2,54.9c2.1,0.4,4.3,0.7,6.4,1c26.9,3.5,48.8-0.9,60.8-14.3C416.1,387.1,419,380,420,372.1"/>
		<path class="st1" d="M436.6,170.9c23.3,21.5,39.7,47.4,46.8,74.1c12.9,47.9-5.3,90-43,112.6l-0.2,0.2c-0.1-0.3-0.2-0.6-0.3-1.9
			c-0.5-5.7,0.5-11.2,2.9-16c8.1-15.9,9.8-40-19.6-70.7c-16.2-16.9-47-40.8-101.5-57.9c-7-2.2-14.1-4.2-21.2-6l-2.7-0.7
			c-0.1,0-0.2-0.1-0.3-0.1c-1.8-0.4-3.7-0.9-5.5-1.3l-0.3-0.1c-1.8-0.4-3.5-0.8-5.2-1.1l-0.1,0c-0.8-0.2-1.6-0.3-2.4-0.5l-0.1,0
			c-1.6-0.3-3.2-0.6-4.8-0.9c-1.3-0.3-2.6-0.5-4-0.7l-0.3-0.1c-0.6-0.1-1.2-0.2-1.8-0.3l-1.7-0.3l-0.3,0l-1.2-0.2l-0.3-0.1
			c-0.5-0.1-1-0.2-1.6-0.2c-0.3-0.1-0.7-0.1-1-0.1c-0.4-0.1-0.9-0.1-1.3-0.2l0,0.6c0,0.2,0,0.5,0,0.7l0,0.3l0,0.5l0,0.3
			c0,0.2,0,0.3,0,0.5l0,0.3l0,0.5l0,0.4l0,0.6l0,0.4l0,0.7c0,0.1,0,0.3,0,0.5l0,0.8c0,0.1,0,0.3,0,0.4l0,0.7c0,0.2,0,0.3,0,0.5
			c0,0.2,0,0.4,0,0.6l0,0.5c0,0.2,0,0.4,0,0.6l0,0.6c0,0.2,0,0.4,0,0.7c0,0.2,0,0.4,0,0.6c0,0.2,0,0.5,0,0.7l0,0.6l0,0.8
			c0,0.3,0,0.5,0,0.8c0,0.3,0,0.7,0,1l0,0.6l0,0.8l0,0.7l0,0.8l0,0.7c0,0.2,0,0.5,0,0.8l0,0.7l0,0.8l0,0.7c0,0.3,0,0.6,0.1,0.8
			c0,0.6,0.1,1.1,0.1,1.7l0.1,0.8l0.1,1.5l0.1,0.7l0.1,1c0,0.3,0,0.5,0.1,0.8l0.1,0.9l0.1,0.8l0.1,0.9l0.1,0.9l0.1,0.9
			c0,0.3,0.1,0.6,0.1,0.8l0.1,1l0.1,0.8l0.1,1.1l0.1,0.7c0.4,2.7,0.8,5.4,1.2,8.1l0,0.2c0.1,0.8,0.3,1.7,0.5,2.5l0,0.1
			c0.2,0.8,0.3,1.7,0.5,2.5l0,0.1c0.2,0.8,0.3,1.7,0.5,2.5l0,0c1,4.5,2.1,9.2,3.5,14c1.7,6,3.9,12.3,6.5,18.7l0.6,1.6
			c3.5,8.5,7.7,16.8,12.7,25c3.6,5.6,9.2,13.5,13.9,19.3c2.1,2.5,4.3,5,6.6,7.4c21.3,22.3,44.8,33.4,69.7,33.1
			c1.7,0,3.4-0.1,5.2-0.2c14.7-1.1,25.9-5.9,31.2-8.7c-1.6-36.1-37.4-87-94.8-129.1c-8-5.8-16.2-11.4-24.6-16.6
			c18,10,27.2,15.4,38.3,23.5c78.3,57.5,117.9,130.9,88.3,163.9c-4.4,4.9-10.1,8.7-16.7,11.2c9.1-2.6,16.6-6.9,22.1-13
			c1.8-2,3.3-4.1,4.5-6.3c52.3-22.3,79.4-73.8,63.4-133.4C491.6,229.5,468.8,196.6,436.6,170.9"/>
		<path class="st1" d="M394.9,171.6c3.1-1.8,8.3-1.5,13.1,1.2c4.8,2.7,7.8,6.9,7.9,10.5c-3.1,1.8-8.3,1.5-13.1-1.2
			C397.9,179.4,394.9,175.2,394.9,171.6 M213.1,172.5c9.5,2.5,21.6,9.8,30.4,15.8c3.9-2.5,8.4-4.3,13.2-5.4
			c-5.9-7.2-14.3-18.7-15.4-26.8c-2.1-16.5,17.8-18,17.8-18s-17.6,3.8-12.3,19.1c2.6,7.4,12.7,18.2,19.1,24.5
			c11.5-0.3,22.6,3.7,29.2,11.4c0.7,0.8,1.3,1.6,1.8,2.4l0,0c0,0,2.2,2.7,4.8,3.5c7,1.8,14,3.7,20.9,5.9c10.6,3.3,21,7.1,31.3,11.5
			c1.7,0.7,2.7-1.1,1.2-2.1c-55.4-37.9-27.7-53.3-27.7-53.3c-10.6,21.1,20.7,35.9,56.1,51.1c31.2,13.4,54.8,28.1,73.4,17.8
			c9.3-5.1-1.2-16.2-7.6-22.3c-4.8-4.6-8.1-7.4-12.9-13.5c-2.4-3-3.8-6.4-4-9.7c-0.1-4.6-3.3-10-8.7-15.4c-4-4-10.7-8.2-15.6-11.1
			c-3.2-1.8-6.2-4-8.8-6.4C379.5,133.3,339,126,339,126l0,0c-12.7-2.4-25.4-3.5-37.8-3.3c-25.7,0.3-48.6,6-67.6,15.9l0,0
			c-10.1,5.2-19.2,11.7-27,19.1l-1,0.9c-1.9,1.8-3.7,3.7-5.4,5.7l0,0c-1,1.1-2,2.3-2.9,3.4l0,0c-1.9,2.3-3.6,4.7-5.3,7.1l-0.2,0.3
			l-0.4,0.7C194.9,172.5,201.5,169.5,213.1,172.5"/>
	</g>
	<g>
		<path class="st2" d="M381.4,432.7c-100.4,1.3-201.8-68-230.8-156.1l-19.8,0.3c31.6,97.8,144,174.9,255.3,173.4
			c64.1-0.8,114.5-27.4,141.7-68.6l-21.9-5.8C480.6,410.1,436.6,432,381.4,432.7z"/>
		<path class="st3" d="M286.2,80.5C174.8,81.9,104.8,161.3,126,259.3l19.8-0.3c-18.7-88.2,44.6-159.6,145.1-160.9
			c55.2-0.7,110.7,19.9,154.3,53.2l18.6-6.4C414.6,104.8,350.3,79.7,286.2,80.5z"/>
	</g>
	<path class="st4" d="M147.4,116.2c22.5-22.7,53.1-39.2,89.7-47c-4-5.9-9.1-11.2-14.9-15.8c-35,8.5-64.8,24.4-87.6,45.9
		C137.9,105.5,142.3,111.2,147.4,116.2z"/>
	
		<ellipse transform="matrix(0.4723 -0.8814 0.8814 0.4723 41.3485 138.1882)" class="st4" cx="136.1" cy="34.6" rx="30.8" ry="40.3"/>
	<path class="st1" d="M128.2,319.1c-17.8-32.8-27-67.7-25.5-101.6c-7.2-0.7-14.1-0.3-20.5,1.2c-0.4,33.1,8.4,67,24.9,99.2
		C114.4,319.4,121.5,319.8,128.2,319.1z"/>
	
		<ellipse transform="matrix(0.4723 -0.8814 0.8814 0.4723 -220.4842 179.2501)" class="st1" cx="39.5" cy="273.8" rx="30.8" ry="40.3"/>
	
		<ellipse transform="matrix(0.4723 -0.8814 0.8814 0.4723 -303.0301 510.8042)" class="st4" cx="275.1" cy="508.5" rx="30.8" ry="40.3"/>
	<path class="st5" d="M229.3,437.7c35.5,20.9,75,35.8,115.7,42.5c1.7-5.2,2.2-10.9,1.5-16.9c-38.9-6.1-76.7-20.3-110.4-40.5
		C232.8,427.1,230.5,432.2,229.3,437.7z"/>
</g>
</svg>
